<svg xmlns="http://www.w3.org/2000/svg" width="296" height="288" shape-rendering="geometricPrecision" text-rendering="geometricPrecision" image-rendering="optimizeQuality" fill-rule="evenodd" clip-rule="evenodd"><path d="M147.99 0c33.15 0 60.03 26.87 60.03 60.02 0 33.15-26.88 60.03-60.03 60.03-33.15 0-60.02-26.88-60.02-60.03C87.97 26.87 114.84 0 147.99 0zm29.92 30.1c-7.65-7.65-18.23-12.38-29.92-12.38-11.68 0-22.26 4.73-29.92 12.38-7.65 7.66-12.39 18.24-12.39 29.92 0 11.69 4.74 22.27 12.39 29.92 7.66 7.65 18.24 12.39 29.92 12.39 11.69 0 22.27-4.74 29.92-12.39 7.65-7.65 12.39-18.23 12.39-29.92 0-11.68-4.74-22.26-12.39-29.92z" fill="#f7f3eb"/><path d="M150.65 134.06l-.11 17.72-6.11.11-6.11.39-6.09.69-6.06.97-6.02 1.25-5.97 1.53-5.9 1.81-5.82 2.09-5.73 2.37-5.62 2.63-5.51 2.9-5.37 3.17-5.24 3.43-5.08 3.69-4.92 3.96-4.74 4.2-4.55 4.47-4.35 4.71-4.14 4.97-3.92 5.22-3.68 5.46-3.44 5.71-3.18 5.96-2.91 6.2-2.63 6.45-2.33 6.7-2.03 6.94-1.71 7.18-1.38 7.43-1.03 7.67-.68 7.92-.3 8.16-17.71-.24.33-9 .75-8.77 1.15-8.54 1.54-8.29 1.91-8.06 2.29-7.8 2.63-7.56 2.97-7.29 3.3-7.03 3.61-6.76 3.9-6.5 4.19-6.21 4.46-5.94 4.72-5.66 4.95-5.37 5.18-5.08 5.4-4.79 5.59-4.49 5.77-4.2 5.95-3.9 6.1-3.59 6.25-3.29 6.38-2.99 6.49-2.68 6.6-2.37 6.68-2.05 6.77-1.74 6.82-1.42 6.88-1.1 6.92-.77 6.94-.46 6.95-.12zm145.06 154.06l-17.72-.23-.08-8.07-.46-7.83-.81-7.59-1.17-7.35-1.5-7.11-1.82-6.87-2.12-6.63-2.43-6.39-2.7-6.16-2.98-5.91-3.25-5.67-3.49-5.43-3.72-5.19-3.96-4.95-4.17-4.7-4.37-4.45-4.57-4.21-4.76-3.96-4.92-3.7-5.08-3.44-5.23-3.19-5.37-2.93-5.49-2.67-5.6-2.4-5.7-2.13-5.79-1.86-5.87-1.58-5.93-1.31-5.98-1.03-6.02-.75-6.05-.47-6.06-.18.11-17.72 6.9.21 6.87.53 6.85.85 6.8 1.17 6.73 1.49 6.67 1.8 6.58 2.12 6.48 2.42 6.37 2.73 6.25 3.03 6.11 3.33 5.96 3.64 5.79 3.93 5.62 4.22 5.43 4.52 5.22 4.81 5 5.09 4.77 5.38 4.53 5.65 4.26 5.94 3.99 6.2 3.69 6.48 3.4 6.74 3.08 7 2.75 7.25 2.41 7.51 2.05 7.75 1.68 7.99 1.31 8.23.91 8.46.51 8.69.09 8.9z" fill="#f7f3eb" fill-rule="nonzero"/></svg>