<svg xmlns="http://www.w3.org/2000/svg" width="296" height="288" shape-rendering="geometricPrecision" text-rendering="geometricPrecision" image-rendering="optimizeQuality" fill-rule="evenodd" clip-rule="evenodd"><path d="M104.44 0c57.68 0 104.43 46.76 104.43 104.44s-46.75 104.43-104.43 104.43C46.76 208.87 0 162.12 0 104.44 0 46.76 46.76 0 104.44 0zm61.32 43.11c-15.69-15.69-37.37-25.39-61.32-25.39-23.95 0-45.64 9.7-61.33 25.39-15.69 15.69-25.39 37.38-25.39 61.33 0 23.95 9.7 45.63 25.39 61.32 15.69 15.69 37.38 25.4 61.33 25.4 23.95 0 45.63-9.71 61.32-25.4 15.69-15.69 25.4-37.37 25.4-61.32 0-23.95-9.71-45.64-25.4-61.33z" fill="#f7f3eb"/><path fill="#f7f3eb" fill-rule="nonzero" d="M283.72 287.55l-117.09-108.4 12.04-13 117.09 108.4z"/></svg>