<svg xmlns="http://www.w3.org/2000/svg" width="179" height="386" shape-rendering="geometricPrecision" text-rendering="geometricPrecision" image-rendering="optimizeQuality" fill-rule="evenodd" clip-rule="evenodd"><path d="M39.15 290.9v-91.37c0-5.6-1.86-7.46-5.59-5.6H5.59c-3.73 0-5.6-1.86-5.6-5.59V132.4c0-3.73 1.87-5.6 5.6-5.6h27.97c5.59 0 7.46-1.86 7.46-7.46V76.46c0-16.79 5.59-33.57 14.91-48.49C68.99 9.33 87.64 1.87 110.01 0c22.38 1.87 42.89 1.87 65.27 1.87 3.73 0 3.73 1.86 3.73 3.73v57.8c0 3.73-1.87 3.73-3.73 3.73h-31.7c-14.92 0-22.38 7.46-24.25 22.38v33.56c0 3.73 1.87 3.73 5.6 3.73h48.48c5.6 0 5.6 1.87 5.6 5.6-1.87 18.65-3.73 37.29-5.6 55.94 0 3.73-1.86 5.59-5.59 5.59h-39.16c-9.33 0-7.46-1.86-7.46 7.46v177.15c0 5.6-1.87 7.46-7.46 7.46H48.48c-5.6 0-7.46-1.86-7.46-7.46-1.87-27.97-1.87-57.81-1.87-87.64z" fill="#f7f3eb"/></svg>