<svg xmlns="http://www.w3.org/2000/svg" width="364" height="288" shape-rendering="geometricPrecision" text-rendering="geometricPrecision" image-rendering="optimizeQuality" fill-rule="evenodd" clip-rule="evenodd"><path d="M182.07 288.21C114.56 250.29-27.56 166.24 4.82 71.12 16.6 36.51 46.85 2.98 96.18.08c36.34-2.13 67.32 12.79 86.88 38.26C197.31 16.93 234.59-2.45 268.46 0c56.64 4.09 83.09 37.85 92.35 72.58 25.27 94.77-110.29 178.91-178.74 215.63zm41.8-270.78c-14.66 6.58-26.93 16.01-33.44 25.79l-6.85 10.3-7.54-9.82c-9.04-11.77-20.78-21.07-34.5-27.11-13.29-5.85-28.46-8.64-44.84-7.68-20.72 1.21-37.73 8.32-51.08 18.71-15.8 12.28-26.58 29.16-32.43 46.33-14.78 43.44 11.22 85.25 48.85 120.73 37.55 35.4 86.72 64.56 120.13 83.43 33.64-18.28 81.38-47.11 118.33-82.35 37.17-35.46 63.37-77.38 51.76-120.93-4.61-17.29-13.85-34.28-29.62-46.68-13.18-10.36-31.06-17.61-54.8-19.33-14.75-1.06-30.31 2.47-43.97 8.61z" fill="#305054"/></svg>