<?xml version="1.0" encoding="UTF-8"?>
<!DOCTYPE svg PUBLIC "-//W3C//DTD SVG 1.1//EN" "http://www.w3.org/Graphics/SVG/1.1/DTD/svg11.dtd">
<!-- Creator: CorelDRAW 2017 -->
<svg xmlns="http://www.w3.org/2000/svg" xml:space="preserve" width="296px" height="288px" version="1.1" style="shape-rendering:geometricPrecision; text-rendering:geometricPrecision; image-rendering:optimizeQuality; fill-rule:evenodd; clip-rule:evenodd"
viewBox="0 0 296 288"
 xmlns:xlink="http://www.w3.org/1999/xlink">
 <defs>
  <style type="text/css">
   <![CDATA[
    .fil0 {fill:#F7F3EB}
    .fil1 {fill:#F7F3EB;fill-rule:nonzero}
   ]]>
  </style>
 </defs>
 <g id="Слой_x0020_1">
  <metadata id="CorelCorpID_0Corel-Layer"/>
  <g>
   <path class="fil0" d="M104.44 0c57.68,0 104.43,46.76 104.43,104.44 0,57.68 -46.75,104.43 -104.43,104.43 -57.68,0 -104.44,-46.75 -104.44,-104.43 0,-57.68 46.76,-104.44 104.44,-104.44zm61.32 43.11c-15.69,-15.69 -37.37,-25.39 -61.32,-25.39 -23.95,0 -45.64,9.7 -61.33,25.39 -15.69,15.69 -25.39,37.38 -25.39,61.33 0,23.95 9.7,45.63 25.39,61.32 15.69,15.69 37.38,25.4 61.33,25.4 23.95,0 45.63,-9.71 61.32,-25.4 15.69,-15.69 25.4,-37.37 25.4,-61.32 0,-23.95 -9.71,-45.64 -25.4,-61.33z"/>
  </g>
  <g>
   <polygon class="fil1" points="283.72,287.55 166.63,179.15 178.67,166.15 295.76,274.55 "/>
  </g>
 </g>
</svg>
