<?xml version="1.0" encoding="UTF-8"?>
<!DOCTYPE svg PUBLIC "-//W3C//DTD SVG 1.1//EN" "http://www.w3.org/Graphics/SVG/1.1/DTD/svg11.dtd">
<!-- Creator: CorelDRAW 2017 -->
<svg xmlns="http://www.w3.org/2000/svg" xml:space="preserve" width="438px" height="494px" version="1.1" style="shape-rendering:geometricPrecision; text-rendering:geometricPrecision; image-rendering:optimizeQuality; fill-rule:evenodd; clip-rule:evenodd"
viewBox="0 0 438 494.04"
 xmlns:xlink="http://www.w3.org/1999/xlink">
 <defs>
  <style type="text/css">
   <![CDATA[
    .fil0 {fill:#F7F3EB}
   ]]>
  </style>
 </defs>
 <g id="Слой_x0020_1">
  <metadata id="CorelCorpID_0Corel-Layer"/>
  <g>
   <path class="fil0" d="M89.57 0l97.43 124.14 -63.96 54.08c-41.57,38.67 96.05,206.85 146.37,184.64l66.63 -49.46 98.91 126.61c-96.36,103.71 -254.38,45.42 -349.39,-67.6 -94.16,-112.02 -126.33,-277.9 4.01,-372.41zm72.99 121.66l-76.04 -96.88c-48.19,40.83 -67.35,93.91 -65.72,148.94 1.69,56.67 25.2,115.69 61.84,166.23 5.55,7.65 11.03,14.69 16.42,21.11 9.8,11.65 20.49,22.86 31.91,33.47 42.52,39.51 92.96,67.96 142.72,77.94 47.96,9.61 95.27,1.82 133.61,-30.4 1.35,-1.15 2.71,-2.33 4.07,-3.56l-78.63 -100.66 -52.81 39.2 -1.7 1.26 -1.69 0.74c-22.44,9.91 -52.57,-2.77 -81.7,-26.63 -20.39,-16.71 -41.17,-39.33 -58.17,-62.84 -17.24,-23.84 -30.7,-48.96 -36.18,-70.32 -5.64,-22.04 -3.27,-41.17 10.5,-53.99l0.63 -0.55 50.94 -43.06z"/>
  </g>
 </g>
</svg>
