<?xml version="1.0" encoding="UTF-8"?>
<!DOCTYPE svg PUBLIC "-//W3C//DTD SVG 1.1//EN" "http://www.w3.org/Graphics/SVG/1.1/DTD/svg11.dtd">
<!-- Creator: CorelDRAW 2017 -->
<svg xmlns="http://www.w3.org/2000/svg" xml:space="preserve" width="179px" height="386px" version="1.1" style="shape-rendering:geometricPrecision; text-rendering:geometricPrecision; image-rendering:optimizeQuality; fill-rule:evenodd; clip-rule:evenodd"
viewBox="0 0 179 386"
 xmlns:xlink="http://www.w3.org/1999/xlink">
 <defs>
  <style type="text/css">
   <![CDATA[
    .fil0 {fill:#F7F3EB}
   ]]>
  </style>
 </defs>
 <g id="Слой_x0020_1">
  <metadata id="CorelCorpID_0Corel-Layer"/>
  <path id="XMLID_3_" class="fil0" d="M39.15 290.9c0,-29.84 0,-59.67 0,-91.37 0,-5.6 -1.86,-7.46 -5.59,-5.6 -9.32,0 -18.65,0 -27.97,0 -3.73,0 -5.6,-1.86 -5.6,-5.59 0,-18.65 0,-37.3 0,-55.94 0,-3.73 1.87,-5.6 5.6,-5.6 9.32,0 18.64,0 27.97,0 5.59,0 7.46,-1.86 7.46,-7.46 0,-14.91 0,-27.97 0,-42.88 0,-16.79 5.59,-33.57 14.91,-48.49 13.06,-18.64 31.71,-26.1 54.08,-27.97 22.38,1.87 42.89,1.87 65.27,1.87 3.73,0 3.73,1.86 3.73,3.73 0,18.64 0,37.29 0,57.8 0,3.73 -1.87,3.73 -3.73,3.73 -11.19,0 -20.52,0 -31.7,0 -14.92,0 -22.38,7.46 -24.25,22.38 0,11.19 0,22.38 0,33.56 0,3.73 1.87,3.73 5.6,3.73 16.78,0 31.7,0 48.48,0 5.6,0 5.6,1.87 5.6,5.6 -1.87,18.65 -3.73,37.29 -5.6,55.94 0,3.73 -1.86,5.59 -5.59,5.59 -13.06,0 -26.11,0 -39.16,0 -9.33,0 -7.46,-1.86 -7.46,7.46 0,59.67 0,117.48 0,177.15 0,5.6 -1.87,7.46 -7.46,7.46 -22.38,0 -44.75,0 -65.26,0 -5.6,0 -7.46,-1.86 -7.46,-7.46 -1.87,-27.97 -1.87,-57.81 -1.87,-87.64z"/>
 </g>
</svg>
