<?xml version="1.0" encoding="UTF-8"?>
<!DOCTYPE svg PUBLIC "-//W3C//DTD SVG 1.1//EN" "http://www.w3.org/Graphics/SVG/1.1/DTD/svg11.dtd">
<!-- Creator: CorelDRAW 2017 -->
<svg xmlns="http://www.w3.org/2000/svg" xml:space="preserve" width="364px" height="288px" version="1.1" style="shape-rendering:geometricPrecision; text-rendering:geometricPrecision; image-rendering:optimizeQuality; fill-rule:evenodd; clip-rule:evenodd"
viewBox="0 0 364 288"
 xmlns:xlink="http://www.w3.org/1999/xlink">
 <defs>
  <style type="text/css">
   <![CDATA[
    .fil0 {fill:#305054}
   ]]>
  </style>
 </defs>
 <g id="Слой_x0020_1">
  <metadata id="CorelCorpID_0Corel-Layer"/>
  <g>
   <path class="fil0" d="M182.07 288.21c-67.51,-37.92 -209.63,-121.97 -177.25,-217.09 11.78,-34.61 42.03,-68.14 91.36,-71.04 36.34,-2.13 67.32,12.79 86.88,38.26 14.25,-21.41 51.53,-40.79 85.4,-38.34 56.64,4.09 83.09,37.85 92.35,72.58 25.27,94.77 -110.29,178.91 -178.74,215.63zm41.8 -270.78c-14.66,6.58 -26.93,16.01 -33.44,25.79l-6.85 10.3 -7.54 -9.82c-9.04,-11.77 -20.78,-21.07 -34.5,-27.11 -13.29,-5.85 -28.46,-8.64 -44.84,-7.68 -20.72,1.21 -37.73,8.32 -51.08,18.71 -15.8,12.28 -26.58,29.16 -32.43,46.33 -14.78,43.44 11.22,85.25 48.85,120.73 37.55,35.4 86.72,64.56 120.13,83.43 33.64,-18.28 81.38,-47.11 118.33,-82.35 37.17,-35.46 63.37,-77.38 51.76,-120.93 -4.61,-17.29 -13.85,-34.28 -29.62,-46.68 -13.18,-10.36 -31.06,-17.61 -54.8,-19.33 -14.75,-1.06 -30.31,2.47 -43.97,8.61z"/>
  </g>
 </g>
</svg>
